<svg width="127" height="32" viewBox="0 0 127 32" fill="none" xmlns="http://www.w3.org/2000/svg">
<path d="M4.48 8.78C4.48 10.8733 4.48 15.0467 4.48 21.3C4.49333 21.9267 4.6 22.3933 4.8 22.7C5.01333 23.0067 5.35333 23.28 5.82 23.52H5.1H1.14C1.59333 23.2933 1.92667 23.0067 2.14 22.66C2.36667 22.3 2.48 21.78 2.48 21.1V8.96C2.48 8.29333 2.36667 7.78667 2.14 7.44C1.92667 7.08 1.59333 6.78667 1.14 6.56H1.84H5.82C5.35333 6.8 5.01333 7.07333 4.8 7.38C4.6 7.68667 4.49333 8.15333 4.48 8.78ZM9.49266 21.1C9.49266 20.06 9.49266 18.1533 9.49266 15.38C9.49266 12.6067 9.49266 10.4667 9.49266 8.96L7.77266 6.62H10.2527L20.1527 20.02C20.1527 18.7 20.1527 16.8067 20.1527 14.34C20.1527 11.8733 20.1527 10.1067 20.1527 9.04C20.1527 7.8 19.6327 6.99333 18.5927 6.62H22.5327C21.5193 6.98 20.9993 7.76 20.9727 8.96C20.9727 10.5733 20.9727 13 20.9727 16.24C20.9727 19.4667 20.9727 21.8933 20.9727 23.52H20.2527L10.3327 10.08C10.3327 11.32 10.3327 13.1733 10.3327 15.64C10.3327 18.1067 10.3327 19.96 10.3327 21.2C10.346 21.84 10.486 22.3467 10.7527 22.72C11.0193 23.08 11.3927 23.3467 11.8727 23.52H7.93266C8.97266 23.1467 9.49266 22.34 9.49266 21.1ZM27.7613 9.06L31.3813 20.24L35.5813 8.58C35.8746 7.71333 35.5746 7.05333 34.6813 6.6H38.6013C37.5746 6.90667 36.7879 7.77333 36.2413 9.2C35.7079 10.6933 34.8746 13.02 33.7413 16.18C32.6079 19.3267 31.7479 21.72 31.1613 23.36L31.1013 23.5H30.5213H30.3813L30.3213 23.36C28.5479 17.92 27.0279 13.26 25.7613 9.38C25.4946 8.58 25.1879 7.98 24.8413 7.58C24.5079 7.18 24.0479 6.85333 23.4613 6.6H28.3213C27.8946 6.86667 27.6413 7.19333 27.5613 7.58C27.4946 7.96667 27.5613 8.46 27.7613 9.06ZM50.2733 12.82V17.4C50.0466 16.7467 49.7666 16.2733 49.4333 15.98C49.0999 15.6733 48.5799 15.52 47.8733 15.52H43.0733V22.68C43.8466 22.68 45.0066 22.68 46.5533 22.68C48.1133 22.68 49.2799 22.68 50.0533 22.68C50.7466 22.68 51.2799 22.4867 51.6533 22.1C52.0399 21.7133 52.3466 21.22 52.5733 20.62V23.52H50.1533H39.7533C40.2733 23.32 40.6266 23.0533 40.8133 22.72C40.9999 22.3867 41.0933 21.8533 41.0933 21.12V9.04C41.0933 8.33333 40.9933 7.81333 40.7933 7.48C40.5933 7.14667 40.2466 6.86 39.7533 6.62H52.5733V9.52C52.3466 8.92 52.0399 8.42667 51.6533 8.04C51.2799 7.65333 50.7466 7.46 50.0533 7.46C49.2799 7.46 48.1133 7.46 46.5533 7.46C45.0066 7.46 43.8466 7.46 43.0733 7.46V14.7H47.8733C48.5666 14.7 49.0666 14.5533 49.3733 14.26C49.6933 13.9667 49.9933 13.4867 50.2733 12.82ZM55.8794 21.1C55.8794 20.06 55.8794 18.1533 55.8794 15.38C55.8794 12.6067 55.8794 10.4667 55.8794 8.96L54.1594 6.62H56.6394L66.5394 20.02C66.5394 18.7 66.5394 16.8067 66.5394 14.34C66.5394 11.8733 66.5394 10.1067 66.5394 9.04C66.5394 7.8 66.0194 6.99333 64.9794 6.62H68.9194C67.906 6.98 67.386 7.76 67.3594 8.96C67.3594 10.5733 67.3594 13 67.3594 16.24C67.3594 19.4667 67.3594 21.8933 67.3594 23.52H66.6394L56.7194 10.08C56.7194 11.32 56.7194 13.1733 56.7194 15.64C56.7194 18.1067 56.7194 19.96 56.7194 21.2C56.7327 21.84 56.8727 22.3467 57.1394 22.72C57.406 23.08 57.7794 23.3467 58.2594 23.52H54.3194C55.3594 23.1467 55.8794 22.34 55.8794 21.1ZM84.708 4.62C84.7746 4.71333 84.7813 4.79333 84.728 4.86C84.6746 4.91333 84.5946 4.89333 84.488 4.8C83.9813 4.41333 83.3813 4.13333 82.688 3.96C82.008 3.77333 81.3413 3.69333 80.688 3.72C80.048 3.73333 79.3813 3.78 78.688 3.86C77.7146 3.98 75.9413 4.35333 73.368 4.98C73.368 14.9667 73.368 20.4 73.368 21.28C73.3813 21.7067 73.4413 22.0667 73.548 22.36C73.668 22.64 73.8146 22.86 73.988 23.02C74.1746 23.18 74.4213 23.34 74.728 23.5H70.728H70.048C70.488 23.2733 70.8146 22.9867 71.028 22.64C71.2546 22.28 71.368 21.7667 71.368 21.1C71.368 19.5933 71.368 17.96 71.368 16.2C71.368 14.4267 71.368 12.4667 71.368 10.32C71.368 8.17333 71.368 6.54 71.368 5.42C70.0213 5.74 68.588 5.82667 67.068 5.68C66.2946 5.61333 65.5413 5.41333 64.808 5.08C64.0746 4.74667 63.548 4.28667 63.228 3.7C62.9213 3.14 62.9146 2.54667 63.208 1.92C63.3013 1.72 63.3946 1.72666 63.488 1.94C64.288 3.78 65.5946 4.76 67.408 4.88C68.568 4.96 69.928 4.71333 71.488 4.14C71.848 4.02 72.6346 3.71333 73.848 3.22C74.7146 2.87333 75.4213 2.60667 75.968 2.42C76.528 2.23333 77.2146 2.06667 78.028 1.92C78.8546 1.76 79.608 1.70667 80.288 1.76C81.9413 1.92 83.4146 2.87333 84.708 4.62Z" fill="white"/>
<path d="M79.85 22.4V13.36C79.6092 13.2133 79.4072 13.0267 79.244 12.8C79.0808 12.5733 78.9994 12.3067 79 12V9.6C79 9.16 79.1666 8.7832 79.4998 8.4696C79.833 8.156 80.2331 7.99947 80.7 8H94.3C94.7675 8 95.1679 8.1568 95.5011 8.4704C95.8342 8.784 96.0006 9.16053 96 9.6V12C96 12.3067 95.9184 12.5733 95.7552 12.8C95.592 13.0267 95.3903 13.2133 95.15 13.36V22.4C95.15 22.84 94.9834 23.2168 94.6502 23.5304C94.317 23.844 93.9169 24.0005 93.45 24H81.55C81.0825 24 80.6822 23.8432 80.349 23.5296C80.0158 23.216 79.8494 22.8395 79.85 22.4ZM94.3 12V9.6H80.7V12H94.3ZM84.95 17.6H90.05V16H84.95V17.6Z" fill="white"/>
<path d="M104.48 18.64V21.3C104.493 21.9267 104.6 22.3933 104.8 22.7C105.013 23.0067 105.353 23.28 105.82 23.52H101.84H101.14C101.593 23.2933 101.927 23.0067 102.14 22.66C102.367 22.3 102.48 21.78 102.48 21.1C102.48 19.78 102.48 17.78 102.48 15.1C102.48 12.42 102.48 10.4 102.48 9.04C102.48 8.54667 102.433 8.14667 102.34 7.84C102.247 7.52 102.04 7.24667 101.72 7.02L101.14 6.62H107.62C109.447 6.62 110.96 7.21333 112.16 8.4C113.253 9.50667 113.833 10.8333 113.9 12.38C113.927 13.1533 113.807 13.9133 113.54 14.66C113.26 15.4067 112.86 16.0733 112.34 16.66C111.207 17.9 109.74 18.56 107.94 18.64C107.953 18.64 107.967 18.6467 107.98 18.66C108.367 18.9267 108.767 19.3067 109.18 19.8C109.607 20.28 109.993 20.7333 110.34 21.16C110.687 21.5867 111.06 22 111.46 22.4C111.873 22.7867 112.34 23.08 112.86 23.28C113.393 23.48 113.967 23.54 114.58 23.46C114.66 23.4467 114.7 23.46 114.7 23.5C114.713 23.54 114.68 23.5667 114.6 23.58C113.267 23.8333 112.113 23.8333 111.14 23.58C110.34 23.3667 109.613 22.96 108.96 22.36C108.68 22.0933 108.24 21.58 107.64 20.82C107.04 20.0467 106.547 19.5133 106.16 19.22C105.96 19.0733 105.747 18.9533 105.52 18.86C105.2 18.7133 104.853 18.64 104.48 18.64ZM106.3 7.48H104.48V17.8H106.3C107.993 17.8 109.36 17.2267 110.4 16.08C110.853 15.5733 111.193 14.9933 111.42 14.34C111.66 13.6867 111.76 13.0267 111.72 12.36C111.653 11.04 111.147 9.91333 110.2 8.98C109.173 7.98 107.873 7.48 106.3 7.48ZM121.214 15.86V21.3C121.241 21.9267 121.354 22.3933 121.554 22.7C121.768 23.0067 122.101 23.28 122.554 23.52H118.574H117.894C118.334 23.2933 118.661 23.0067 118.874 22.66C119.101 22.3 119.214 21.78 119.214 21.1C119.214 20.5 119.221 18.8267 119.234 16.08L116.054 9.06C115.721 8.40667 115.381 7.9 115.034 7.54C114.688 7.16667 114.214 6.85333 113.614 6.6C114.268 6.6 115.081 6.6 116.054 6.6C117.041 6.6 117.861 6.6 118.514 6.6C118.061 6.77333 117.801 7.02667 117.734 7.36C117.681 7.69333 117.788 8.12667 118.054 8.66V8.68L120.834 14.74L123.714 8.58C123.808 8.34 123.868 8.12667 123.894 7.94C123.921 7.75333 123.914 7.6 123.874 7.48C123.848 7.34667 123.781 7.22667 123.674 7.12C123.568 7 123.454 6.90667 123.334 6.84C123.228 6.77333 123.081 6.69333 122.894 6.6H126.754C126.261 6.77333 125.841 7.02667 125.494 7.36C125.148 7.68 124.814 8.18 124.494 8.86L121.214 15.86Z" fill="white"/>
</svg>
